<svg width="26" height="25" viewBox="0 0 26 25" fill="none" xmlns="http://www.w3.org/2000/svg">
<path d="M18.2083 5.94721C18.2083 8.65319 15.0356 13.4754 13.6424 15.4627C13.3082 15.9385 12.6875 15.9385 12.3576 15.4627C10.9644 13.4754 7.79167 8.65319 7.79167 5.94721C7.79167 2.66138 10.1224 0 13 0C15.8776 0 18.2083 2.66138 18.2083 5.94721ZM18.5556 9.93184C18.7075 9.58987 18.8464 9.24791 18.9722 8.9109C18.9939 8.85143 19.0156 8.787 19.0373 8.72753L24.072 6.42794C24.7578 6.11571 25.5 6.69061 25.5 7.53313V20.954C25.5 21.4397 25.2396 21.8758 24.8446 22.0592L18.5556 24.9287V9.93184ZM6.47222 6.85416C6.57639 7.55296 6.78472 8.25671 7.02778 8.9109C7.15365 9.24791 7.29253 9.58987 7.44444 9.93184V22.3912L1.92795 24.9139C1.24219 25.2261 0.5 24.6512 0.5 23.8087V10.3878C0.5 9.9021 0.760417 9.46597 1.15538 9.2826L6.47656 6.85416H6.47222ZM14.7274 16.4539C15.3307 15.5916 16.2769 14.1891 17.1667 12.6378V24.9931L8.83333 22.2723V12.6378C9.72309 14.1891 10.6693 15.5916 11.2726 16.4539C12.1623 17.7227 13.8377 17.7227 14.7274 16.4539ZM13 7.53313C13.4604 7.53313 13.902 7.32427 14.2276 6.9525C14.5532 6.58073 14.7361 6.07649 14.7361 5.55073C14.7361 5.02496 14.5532 4.52073 14.2276 4.14896C13.902 3.77719 13.4604 3.56833 13 3.56833C12.5396 3.56833 12.098 3.77719 11.7724 4.14896C11.4468 4.52073 11.2639 5.02496 11.2639 5.55073C11.2639 6.07649 11.4468 6.58073 11.7724 6.9525C12.098 7.32427 12.5396 7.53313 13 7.53313Z" fill="#6C60FE"/>
</svg>
