<svg width="31" height="30" viewBox="0 0 31 30" fill="none" xmlns="http://www.w3.org/2000/svg">
<path d="M10.1621 1.44175C9.71094 0.351907 8.52148 -0.228171 7.38477 0.0823758L2.22852 1.48863C1.20898 1.76988 0.5 2.69566 0.5 3.75034C0.5 18.2464 12.2539 30.0003 26.75 30.0003C27.8047 30.0003 28.7305 29.2914 29.0117 28.2718L30.418 23.1156C30.7285 21.9789 30.1484 20.7894 29.0586 20.3382L23.4336 17.9945C22.4785 17.596 21.3711 17.8714 20.7207 18.6742L18.3535 21.5628C14.2285 19.6117 10.8887 16.2718 8.9375 12.1468L11.8262 9.7855C12.6289 9.12925 12.9043 8.02769 12.5059 7.07261L10.1621 1.44761V1.44175Z" fill="#6C60FE"/>
</svg>
