<svg width="26" height="25" viewBox="0 0 26 25" fill="none" xmlns="http://www.w3.org/2000/svg">
<path d="M23.1562 12.5C23.1562 15.1936 22.0862 17.7769 20.1816 19.6816C18.2769 21.5862 15.6936 22.6562 13 22.6562C10.3064 22.6562 7.72311 21.5862 5.81845 19.6816C3.91378 17.7769 2.84375 15.1936 2.84375 12.5C2.84375 9.80639 3.91378 7.22311 5.81845 5.31845C7.72311 3.41378 10.3064 2.34375 13 2.34375C15.6936 2.34375 18.2769 3.41378 20.1816 5.31845C22.0862 7.22311 23.1562 9.80639 23.1562 12.5ZM0.5 12.5C0.5 15.8152 1.81696 18.9946 4.16117 21.3388C6.50537 23.683 9.68479 25 13 25C16.3152 25 19.4946 23.683 21.8388 21.3388C24.183 18.9946 25.5 15.8152 25.5 12.5C25.5 9.18479 24.183 6.00537 21.8388 3.66117C19.4946 1.31696 16.3152 0 13 0C9.68479 0 6.50537 1.31696 4.16117 3.66117C1.81696 6.00537 0.5 9.18479 0.5 12.5ZM11.8281 5.85938V12.5C11.8281 12.8906 12.0234 13.2568 12.3506 13.4766L17.0381 16.6016C17.5752 16.9629 18.3027 16.8164 18.6641 16.2744C19.0254 15.7324 18.8789 15.0098 18.3369 14.6484L14.1719 11.875V5.85938C14.1719 5.20996 13.6494 4.6875 13 4.6875C12.3506 4.6875 11.8281 5.20996 11.8281 5.85938Z" fill="#6C60FE"/>
</svg>
