<svg width="31" height="24" viewBox="0 0 31 24" fill="none" xmlns="http://www.w3.org/2000/svg">
<path d="M3.3125 0.75C1.75977 0.75 0.5 2.00977 0.5 3.5625C0.5 4.44727 0.916016 5.2793 1.625 5.8125L14.375 15.375C15.043 15.873 15.957 15.873 16.625 15.375L29.375 5.8125C30.084 5.2793 30.5 4.44727 30.5 3.5625C30.5 2.00977 29.2402 0.75 27.6875 0.75H3.3125ZM0.5 7.3125V19.5C0.5 21.5684 2.18164 23.25 4.25 23.25H26.75C28.8184 23.25 30.5 21.5684 30.5 19.5V7.3125L17.75 16.875C16.4141 17.877 14.5859 17.877 13.25 16.875L0.5 7.3125Z" fill="#6C60FE"/>
</svg>
