<svg width="30" height="30" viewBox="0 0 31 30" fill="none" xmlns="http://www.w3.org/2000/svg">
<path d="M7.21652 30H0.995536V9.97098H7.21652V30ZM4.10268 7.23884C2.11384 7.23884 0.5 5.59152 0.5 3.60268C0.5 2.64719 0.879567 1.73083 1.5552 1.0552C2.23083 0.379567 3.14719 0 4.10268 0C5.05817 0 5.97452 0.379567 6.65016 1.0552C7.32579 1.73083 7.70536 2.64719 7.70536 3.60268C7.70536 5.59152 6.09152 7.23884 4.10268 7.23884ZM30.4933 30H24.2857V20.25C24.2857 17.9263 24.2388 14.9464 21.0513 14.9464C17.817 14.9464 17.3214 17.471 17.3214 20.0826V30H11.1071V9.97098H17.0737V12.7031H17.1607C17.9911 11.1295 20.0201 9.46875 23.0469 9.46875C29.3415 9.46875 30.5 13.6138 30.5 18.9978V30H30.4933Z" fill="white"/>
</svg>
