<svg width="31" height="40" viewBox="0 0 31 40" fill="none" xmlns="http://www.w3.org/2000/svg">
<path d="M17.3516 39C21.3594 33.9844 30.5 21.8281 30.5 15C30.5 6.71875 23.7812 0 15.5 0C7.21875 0 0.5 6.71875 0.5 15C0.5 21.8281 9.64062 33.9844 13.6484 39C14.6094 40.1953 16.3906 40.1953 17.3516 39ZM15.5 10C16.8261 10 18.0979 10.5268 19.0355 11.4645C19.9732 12.4021 20.5 13.6739 20.5 15C20.5 16.3261 19.9732 17.5979 19.0355 18.5355C18.0979 19.4732 16.8261 20 15.5 20C14.1739 20 12.9021 19.4732 11.9645 18.5355C11.0268 17.5979 10.5 16.3261 10.5 15C10.5 13.6739 11.0268 12.4021 11.9645 11.4645C12.9021 10.5268 14.1739 10 15.5 10Z" fill="#6C60FE"/>
</svg>
